<svg width="32" height="32" viewBox="0 0 32 32" fill="none" xmlns="http://www.w3.org/2000/svg">
<g id="Mini Apps">
<path id="Vector" d="M3.72183 8.38038C3.48823 6.89387 4.63737 5.55005 6.14213 5.55005H25.8579C27.3626 5.55005 28.5118 6.89387 28.2782 8.38038L26.1887 21.6771C25.7568 24.4252 23.389 26.45 20.6072 26.45H11.3928C8.61104 26.45 6.24316 24.4252 5.81132 21.6771L3.72183 8.38038Z" stroke="#322C3C" stroke-width="1.5"/>
<path id="Vector_2" d="M9.6 9.6V9.6C9.6 12.3909 11.1864 15.0513 13.8994 15.7058C14.6297 15.8819 15.3584 16 16 16C16.6416 16 17.3703 15.8819 18.1006 15.7058C20.8136 15.0513 22.4 12.3909 22.4 9.6V9.6" stroke="#322C3C" stroke-width="1.5"/>
</g>
</svg>
