<svg width="32" height="32" viewBox="0 0 32 32" fill="none" xmlns="http://www.w3.org/2000/svg">
<path d="M11.7218 16.3804C11.4882 14.8939 12.6374 13.55 14.1421 13.55H33.8579C35.3626 13.55 36.5118 14.8939 36.2782 16.3804L34.1887 29.6771C33.7568 32.4252 31.389 34.45 28.6072 34.45H19.3928C16.611 34.45 14.2432 32.4252 13.8113 29.6771L11.7218 16.3804Z" stroke="#322C3C" stroke-width="1.5"/>
<path d="M17.6 17.6V17.6C17.6 20.3909 19.1864 23.0513 21.8994 23.7058C22.6297 23.8819 23.3584 24 24 24C24.6416 24 25.3703 23.8819 26.1006 23.7058C28.8136 23.0513 30.4 20.3909 30.4 17.6V17.6" stroke="#322C3C" stroke-width="1.5"/>
</svg>
