<svg width="173" height="36" viewBox="0 0 173 36" fill="none" xmlns="http://www.w3.org/2000/svg">
<g id="Home5 5">
<g id="Group 2">
<g id="EPLogo">
<g id="Group 3">
<mask id="mask0_1413_38" style="mask-type:alpha" maskUnits="userSpaceOnUse" x="0" y="8" width="173" height="28">
<g id="mask 2">
<path id="Vector" d="M0.465088 8.03369H173V36H0.465088V8.03369Z" fill="white"/>
</g>
</mask>
<g mask="url(#mask0_1413_38)">
<path id="Fill 1" fill-rule="evenodd" clip-rule="evenodd" d="M97.7405 18.5959C97.7405 15.0214 96.0836 12.5745 93.2047 12.5745C90.4447 12.5745 88.7479 15.0214 88.7479 18.5959C88.7479 22.0528 90.4447 24.4603 93.2047 24.4603C96.0836 24.4603 97.7405 22.0528 97.7405 18.5959ZM102.512 18.5959C102.512 24.2288 99.9489 28.5404 94.3079 28.5404C92.0611 28.5404 89.8537 27.4133 88.6701 25.5497V35.9991H83.8982V8.32099H88.6701V11.4868C89.8537 9.5439 92.0611 8.34015 94.3079 8.34015C99.9489 8.34015 102.512 12.8076 102.512 18.5959ZM118.32 18.266C118.32 14.8091 116.623 12.4 113.864 12.4C110.985 12.4 109.327 14.8091 109.327 18.266C109.327 21.8389 110.985 24.2874 113.864 24.2874C116.623 24.2874 118.32 21.8389 118.32 18.266ZM118.399 8.32099H123.171V28.5218H118.399V25.374C117.216 27.3164 115.007 28.5218 112.759 28.5218C107.12 28.5218 104.555 24.0543 104.555 18.266C104.555 12.6331 107.12 8.32099 112.759 8.32099C115.007 8.32099 117.216 9.44758 118.399 11.3123V8.32099ZM168.148 18.266C168.148 14.8091 166.451 12.4 163.692 12.4C160.814 12.4 159.156 14.8091 159.156 18.266C159.156 21.8389 160.814 24.2874 163.692 24.2874C166.451 24.2874 168.148 21.8389 168.148 18.266ZM172.999 8.32099V28.5218H168.228V25.374C167.044 27.3164 164.836 28.5218 162.588 28.5218C156.948 28.5218 154.384 24.0543 154.384 18.266C154.384 12.6331 156.948 8.32099 162.588 8.32099C164.836 8.32099 167.044 9.44758 168.228 11.3123V8.32099H172.999ZM126.543 28.5218H131.314V8.32153H126.543V28.5218ZM75.5674 16.9249C75.5674 19.5671 75.0547 24.0734 70.5989 24.0734C68.7843 24.0734 67.2873 23.3742 67.2873 19.2957V8.32099H62.5139V20.848C62.5139 25.7439 64.8806 28.5409 69.4542 28.5409C73.017 28.5409 74.7479 26.7396 75.5674 24.2544V25.0446C75.5674 28.7543 74.3465 31.5668 70.4396 32.1133C67.3543 32.5444 65.1318 30.9426 63.4263 28.6085L60.8559 31.7647C62.1676 34.0073 66.1988 36.0018 70.016 35.9991C70.5611 35.9986 71.1019 35.9576 71.6297 35.8703C77.4231 34.9141 80.3387 31.0038 80.3387 25.3554V20.7469V8.32099H75.5674V16.9249ZM35.2233 18.266C35.2233 14.8091 33.528 12.4 30.7686 12.4C27.8886 12.4 26.2323 14.8091 26.2323 18.266C26.2323 21.8389 27.8886 24.2874 30.7686 24.2874C33.528 24.2874 35.2233 21.8389 35.2233 18.266ZM35.3038 8.32099H40.0756V28.5218H35.3038V25.374C34.119 27.3164 31.9106 28.5218 29.6627 28.5218C24.0233 28.5218 21.4604 24.0543 21.4604 18.266C21.4604 12.6331 24.0233 8.32099 29.6627 8.32099C31.9106 8.32099 34.119 9.44758 35.3038 11.3123V8.32099ZM47.5831 14.0912C47.5831 13.054 49.0822 12.3255 51.2907 12.3255C53.5769 12.3255 56.1797 13.17 56.4164 15.3961L59.8068 13.6319C59.8068 10.7902 56.7707 8.29545 51.4085 8.29545C46.044 8.29545 42.8097 10.7524 42.8097 14.0146C42.8097 21.7687 55.5088 18.5049 55.5088 22.1508C55.5088 23.4955 53.8535 24.4539 51.4873 24.4539C48.884 24.4539 46.0845 23.3417 45.7685 20.2318L41.9437 22.0363C42.2592 25.7593 45.7685 28.5218 50.8947 28.5218C56.9285 28.5218 60.1239 25.5667 60.1239 22.0363C60.1239 14.7819 47.5831 16.8925 47.5831 14.0912ZM152.256 22.0363C152.256 25.5667 149.06 28.5218 143.027 28.5218C137.9 28.5218 134.391 25.7593 134.076 22.0363L137.9 20.2318C138.216 23.3417 141.015 24.4539 143.619 24.4539C145.985 24.4539 147.641 23.4955 147.641 22.1508C147.641 18.5049 134.942 21.7687 134.942 14.0146C134.942 10.7524 138.176 8.29545 143.539 8.29545C148.903 8.29545 151.939 10.7902 151.939 13.6319L148.548 15.3961C148.311 13.17 145.708 12.3255 143.423 12.3255C141.214 12.3255 139.715 13.054 139.715 14.0912C139.715 16.8925 152.256 14.7819 152.256 22.0363ZM13.4532 13.7953C12.7849 12.7901 11.4997 12.2606 9.7251 12.359C6.85217 12.5181 5.16774 14.3929 4.775 16.1464C5.60857 17.042 9.44634 17.8892 12.2442 16.9462C13.6796 16.4625 14.2414 14.9794 13.4532 13.7953ZM0.463989 16.6679C1.15116 11.5948 4.46113 8.33696 9.63758 8.05012C12.745 7.87771 15.922 8.97449 17.6745 11.8529C19.218 14.3871 19.4881 19.4351 12.8535 20.7757C5.94891 22.1704 1.56605 18.9083 0.463989 16.6679Z" fill="#322C3C"/>
</g>
</g>
<path id="Fill 4" fill-rule="evenodd" clip-rule="evenodd" d="M14.9976 20.3969C14.0667 22.643 11.5012 23.978 8.73156 23.8518C4.42344 23.6556 1.23078 21.1659 0.0459271 17.8657C-0.388432 22.5157 2.28198 26.5471 7.04707 27.6491C12.2039 28.8399 17.1607 26.2036 18.5799 22.5856L14.9976 20.3969Z" fill="#21B25F"/>
<g id="Group 8">
<mask id="mask1_1413_38" style="mask-type:alpha" maskUnits="userSpaceOnUse" x="126" y="0" width="6" height="6">
<g id="mask 4">
<path id="Vector_2" d="M126.366 0H131.755V5.69871H126.366V0Z" fill="white"/>
</g>
</mask>
<g mask="url(#mask1_1413_38)">
<path id="Fill 6" fill-rule="evenodd" clip-rule="evenodd" d="M126.366 2.86829C126.366 1.28632 127.584 0 129.077 0C130.54 0 131.755 1.28632 131.755 2.86829C131.755 4.41248 130.54 5.69881 129.077 5.69881C127.584 5.69881 126.366 4.41248 126.366 2.86829Z" fill="#21B25F"/>
</g>
</g>
</g>
</g>
</g>
</svg>
