<svg width="32" height="32" viewBox="0 0 32 32" fill="none" xmlns="http://www.w3.org/2000/svg">
<g id="vuesax/linear/scanning">
<g id="vuesax/linear/scanning_2">
<g id="scanning">
<path id="Vector" d="M2.66667 12V8.66663C2.66667 5.34663 5.34667 2.66663 8.66667 2.66663H12" stroke="#322C3C" stroke-width="1.5" stroke-linecap="round" stroke-linejoin="round"/>
<path id="Vector_2" d="M20 2.66663H23.3333C26.6533 2.66663 29.3333 5.34663 29.3333 8.66663V12" stroke="#322C3C" stroke-width="1.5" stroke-linecap="round" stroke-linejoin="round"/>
<path id="Vector_3" d="M29.3333 21.3334V23.3334C29.3333 26.6534 26.6533 29.3334 23.3333 29.3334H21.3333" stroke="#322C3C" stroke-width="1.5" stroke-linecap="round" stroke-linejoin="round"/>
<path id="Vector_4" d="M12 29.3333H8.66667C5.34667 29.3333 2.66667 26.6533 2.66667 23.3333V20" stroke="#322C3C" stroke-width="1.5" stroke-linecap="round" stroke-linejoin="round"/>
<path id="Vector_5" d="M11.3333 14.6667C13.1743 14.6667 14.6667 13.1743 14.6667 11.3333C14.6667 9.49238 13.1743 8 11.3333 8C9.49238 8 8 9.49238 8 11.3333C8 13.1743 9.49238 14.6667 11.3333 14.6667Z" stroke="#322C3C" stroke-width="1.5" stroke-linecap="round" stroke-linejoin="round"/>
<path id="Vector_6" d="M10 24C11.1046 24 12 23.1046 12 22C12 20.8954 11.1046 20 10 20C8.89543 20 8 20.8954 8 22C8 23.1046 8.89543 24 10 24Z" stroke="#322C3C" stroke-width="1.5" stroke-linecap="round" stroke-linejoin="round"/>
<path id="Vector_7" d="M22 12C23.1046 12 24 11.1046 24 10C24 8.89543 23.1046 8 22 8C20.8954 8 20 8.89543 20 10C20 11.1046 20.8954 12 22 12Z" stroke="#322C3C" stroke-width="1.5" stroke-linecap="round" stroke-linejoin="round"/>
<path id="Vector_8" d="M20.6667 24C22.5076 24 24 22.5077 24 20.6667C24 18.8258 22.5076 17.3334 20.6667 17.3334C18.8257 17.3334 17.3333 18.8258 17.3333 20.6667C17.3333 22.5077 18.8257 24 20.6667 24Z" stroke="#322C3C" stroke-width="1.5" stroke-linecap="round" stroke-linejoin="round"/>
</g>
</g>
</g>
</svg>
